<svg xmlns="http://www.w3.org/2000/svg" viewBox="0 0 96 96"><defs><linearGradient id="g" x1="18" y1="12" x2="76" y2="88" gradientUnits="userSpaceOnUse"><stop stop-color="#ff2f8e"/><stop offset=".52" stop-color="#b43cff"/><stop offset="1" stop-color="#18e4f2"/></linearGradient><filter id="glow" x="-35%" y="-35%" width="170%" height="170%"><feGaussianBlur stdDeviation="2.4" result="b"/><feMerge><feMergeNode in="b"/><feMergeNode in="SourceGraphic"/></feMerge></filter></defs><rect width="96" height="96" rx="20" fill="#020617"/><g fill="none" stroke="url(#g)" stroke-linecap="round" stroke-linejoin="round" filter="url(#glow)"><path d="M48 8C30 8 15 23 15 42c0 23 26 42 33 50 7-8 33-27 33-50C81 23 66 8 48 8Z" stroke-width="5.5"/><path d="M31 34h20c3 0 4-4 1-5-14-4-27 1-27 12 0 17 31 10 31 25 0 10-14 14-30 7" stroke-width="7"/><path d="M55 30v42" stroke-width="7"/><path d="M55 51h18" stroke-width="7"/><path d="M73 30v42l-8 8" stroke-width="7"/><path d="M50 70l13-25h-10l12-25" stroke-width="7"/><circle cx="64" cy="24" r="8" fill="url(#g)" stroke-width="2"/><path d="M67 10l3 7 7 3-7 3-3 7-3-7-7-3 7-3 3-7Z" fill="#ff3f9b" stroke="none"/></g></svg>